<?xml version="1.0" encoding="UTF-8" standalone="no"?>
<!-- Created with Inkscape (http://www.inkscape.org/) -->

<svg
   xmlns:dc="http://purl.org/dc/elements/1.1/"
   xmlns:cc="http://creativecommons.org/ns#"
   xmlns:rdf="http://www.w3.org/1999/02/22-rdf-syntax-ns#"
   xmlns:svg="http://www.w3.org/2000/svg"
   xmlns="http://www.w3.org/2000/svg"
   xmlns:xlink="http://www.w3.org/1999/xlink"
   xmlns:sodipodi="http://sodipodi.sourceforge.net/DTD/sodipodi-0.dtd"
   xmlns:inkscape="http://www.inkscape.org/namespaces/inkscape"
   width="200"
   height="100"
   id="svg2"
   version="1.1"
   inkscape:version="0.47 r22583"
   sodipodi:docname="generator.svg">
  <defs
     id="defs4">
    <inkscape:path-effect
       effect="spiro"
       id="path-effect3787"
       is_visible="true" />
    <linearGradient
       id="linearGradient3773">
      <stop
         style="stop-color:#252628;stop-opacity:1;"
         offset="0"
         id="stop3775" />
      <stop
         id="stop3781"
         offset="0.65420717"
         style="stop-color:#252628;stop-opacity:0.70075756;" />
      <stop
         style="stop-color:#252628;stop-opacity:0.54545456;"
         offset="1"
         id="stop3777" />
    </linearGradient>
    <inkscape:path-effect
       effect="spiro"
       id="path-effect2853"
       is_visible="true" />
    <inkscape:perspective
       sodipodi:type="inkscape:persp3d"
       inkscape:vp_x="0 : 526.18109 : 1"
       inkscape:vp_y="0 : 1000 : 0"
       inkscape:vp_z="744.09448 : 526.18109 : 1"
       inkscape:persp3d-origin="372.04724 : 350.78739 : 1"
       id="perspective10" />
    <linearGradient
       inkscape:collect="always"
       xlink:href="#linearGradient3773"
       id="linearGradient3779"
       x1="50.001274"
       y1="100.44796"
       x2="50.001274"
       y2="69.44796"
       gradientUnits="userSpaceOnUse" />
    <inkscape:perspective
       id="perspective3841"
       inkscape:persp3d-origin="0.5 : 0.33333333 : 1"
       inkscape:vp_z="1 : 0.5 : 1"
       inkscape:vp_y="0 : 1000 : 0"
       inkscape:vp_x="0 : 0.5 : 1"
       sodipodi:type="inkscape:persp3d" />
    <inkscape:perspective
       id="perspective3841-5"
       inkscape:persp3d-origin="0.5 : 0.33333333 : 1"
       inkscape:vp_z="1 : 0.5 : 1"
       inkscape:vp_y="0 : 1000 : 0"
       inkscape:vp_x="0 : 0.5 : 1"
       sodipodi:type="inkscape:persp3d" />
    <inkscape:perspective
       id="perspective2834"
       inkscape:persp3d-origin="0.5 : 0.33333333 : 1"
       inkscape:vp_z="1 : 0.5 : 1"
       inkscape:vp_y="0 : 1000 : 0"
       inkscape:vp_x="0 : 0.5 : 1"
       sodipodi:type="inkscape:persp3d" />
    <linearGradient
       gradientTransform="translate(101.77414,951.8831)"
       inkscape:collect="always"
       xlink:href="#linearGradient3773-7"
       id="linearGradient3779-3"
       x1="50.001274"
       y1="100.44796"
       x2="50.001274"
       y2="69.44796"
       gradientUnits="userSpaceOnUse" />
    <linearGradient
       id="linearGradient3773-7">
      <stop
         style="stop-color:#252628;stop-opacity:1;"
         offset="0"
         id="stop3775-4" />
      <stop
         id="stop3781-5"
         offset="0.65420717"
         style="stop-color:#252628;stop-opacity:0.70075756;" />
      <stop
         style="stop-color:#252628;stop-opacity:0.54545456;"
         offset="1"
         id="stop3777-2" />
    </linearGradient>
  </defs>
  <sodipodi:namedview
     id="base"
     pagecolor="#ffffff"
     bordercolor="#666666"
     borderopacity="1.0"
     inkscape:pageopacity="0.0"
     inkscape:pageshadow="2"
     inkscape:zoom="3.959798"
     inkscape:cx="137.52409"
     inkscape:cy="38.336891"
     inkscape:document-units="px"
     inkscape:current-layer="layer1"
     showgrid="false"
     inkscape:showpageshadow="false"
     inkscape:window-width="1440"
     inkscape:window-height="849"
     inkscape:window-x="0"
     inkscape:window-y="0"
     inkscape:window-maximized="1" />
  <metadata
     id="metadata7">
    <rdf:RDF>
      <cc:Work
         rdf:about="">
        <dc:format>image/svg+xml</dc:format>
        <dc:type
           rdf:resource="http://purl.org/dc/dcmitype/StillImage" />
        <dc:title />
      </cc:Work>
    </rdf:RDF>
  </metadata>
  <g
     inkscape:label="Ebene 1"
     inkscape:groupmode="layer"
     id="layer1"
     transform="translate(0,-952.36218)">
    <path
       style="fill:#80e5ff;fill-opacity:1;stroke:#2c5aa0;stroke-width:1px;stroke-linecap:butt;stroke-linejoin:round;stroke-opacity:1"
       d="m 29.546962,69.695424 1.010153,-18.182746 3.282995,17.677669 1.010153,-17.425131 2.777919,17.677669 1.010153,-17.172593 2.777919,16.667517 1.262691,-16.162441 2.272843,16.414979 1.767767,-16.16244 1.010153,15.909902 1.767767,-15.657364 2.272843,15.909902 2.020305,-15.404826 1.515229,14.647212 2.777919,-13.889598 1.515229,14.394674 3.788072,-14.89975 1.010153,15.152288 3.535534,-14.89975 1.010152,14.89975 2.525382,-15.152288 0,15.404826 -41.921331,0.252539 z"
       id="path3797"
       transform="translate(0,952.36218)" />
    <rect
       style="fill:url(#linearGradient3779);fill-opacity:1;fill-rule:evenodd;stroke:#000000;stroke-width:1px;stroke-linecap:butt;stroke-linejoin:miter;stroke-opacity:1"
       id="rect2999"
       width="50"
       height="30"
       x="25.001276"
       y="69.94796"
       transform="translate(0,952.36218)"
       ry="4.2931485" />
    <path
       sodipodi:type="arc"
       style="fill:#80e5ff;fill-opacity:1;fill-rule:evenodd;stroke:#2c5aa0;stroke-width:0.76099998;stroke-linecap:butt;stroke-linejoin:round;stroke-miterlimit:4;stroke-opacity:1;stroke-dasharray:none;stroke-dashoffset:0"
       id="path3819"
       sodipodi:cx="30.935923"
       sodipodi:cy="77.902916"
       sodipodi:rx="2.1465743"
       sodipodi:ry="2.1465743"
       d="m 33.082497,77.902916 c 0,1.18552 -0.961054,2.146574 -2.146574,2.146574 -1.185521,0 -2.146575,-0.961054 -2.146575,-2.146574 0,-1.18552 0.961054,-2.146574 2.146575,-2.146574 1.18552,0 2.146574,0.961054 2.146574,2.146574 z"
       transform="translate(-2.4536132e-7,957.29002)" />
    <path
       transform="translate(37.375643,957.29002)"
       sodipodi:type="arc"
       style="fill:#80e5ff;fill-opacity:1;fill-rule:evenodd;stroke:#2c5aa0;stroke-width:0.76099998;stroke-linecap:butt;stroke-linejoin:round;stroke-miterlimit:4;stroke-opacity:1;stroke-dasharray:none;stroke-dashoffset:0"
       id="path3819-5"
       sodipodi:cx="30.935923"
       sodipodi:cy="77.902916"
       sodipodi:rx="2.1465743"
       sodipodi:ry="2.1465743"
       d="m 33.082497,77.902916 c 0,1.18552 -0.961054,2.146574 -2.146574,2.146574 -1.185521,0 -2.146575,-0.961054 -2.146575,-2.146574 0,-1.18552 0.961054,-2.146574 2.146575,-2.146574 1.18552,0 2.146574,0.961054 2.146574,2.146574 z" />
    <path
       transform="translate(17.803938,957.29002)"
       sodipodi:type="arc"
       style="fill:#80e5ff;fill-opacity:1;fill-rule:evenodd;stroke:#2c5aa0;stroke-width:0.76099998;stroke-linecap:butt;stroke-linejoin:round;stroke-miterlimit:4;stroke-opacity:1;stroke-dasharray:none;stroke-dashoffset:0"
       id="path3819-6"
       sodipodi:cx="30.935923"
       sodipodi:cy="77.902916"
       sodipodi:rx="2.1465743"
       sodipodi:ry="2.1465743"
       d="m 33.082497,77.902916 c 0,1.18552 -0.961054,2.146574 -2.146574,2.146574 -1.185521,0 -2.146575,-0.961054 -2.146575,-2.146574 0,-1.18552 0.961054,-2.146574 2.146575,-2.146574 1.18552,0 2.146574,0.961054 2.146574,2.146574 z" />
    <path
       style="fill:#80e5ff;fill-opacity:1;stroke:#2c5aa0;stroke-width:1px;stroke-linecap:butt;stroke-linejoin:round;stroke-opacity:1"
       d="m 131.32111,1021.5785 7.07107,-17.9302 -2.77793,17.4251 5.30331,-17.1726 -1.51523,17.4252 3.78807,-16.9201 0,16.415 2.52538,-16.4149 1.01015,16.6674 1.76777,-16.1624 1.01015,15.9099 1.76777,-15.6574 2.27284,15.9099 -0.25253,-16.1624 3.78807,15.4048 -2.0203,-14.8998 6.31344,15.4049 -3.78807,-15.4048 8.5863,15.6573 -5.80838,-15.9099 10.35406,15.9099 -7.32361,-16.4149 9.84899,16.6675 -41.92132,0.2525 z"
       id="path3797-5"
       sodipodi:nodetypes="cccccccccccccccccccccccc" />
    <rect
       style="fill:url(#linearGradient3779-3);fill-opacity:1;fill-rule:evenodd;stroke:#000000;stroke-width:1px;stroke-linecap:butt;stroke-linejoin:miter;stroke-opacity:1"
       id="rect2999-4"
       width="50"
       height="30"
       x="126.77541"
       y="1021.8311"
       ry="4.2931485" />
    <path
       sodipodi:type="arc"
       style="fill:#80e5ff;fill-opacity:1;fill-rule:evenodd;stroke:#2c5aa0;stroke-width:0.76099998;stroke-linecap:butt;stroke-linejoin:round;stroke-miterlimit:4;stroke-opacity:1;stroke-dasharray:none;stroke-dashoffset:0"
       id="path3819-7"
       sodipodi:cx="30.935923"
       sodipodi:cy="77.902916"
       sodipodi:rx="2.1465743"
       sodipodi:ry="2.1465743"
       d="m 33.082497,77.902916 a 2.1465743,2.1465743 0 1 1 -4.293149,0 2.1465743,2.1465743 0 1 1 4.293149,0 z"
       transform="translate(101.77414,956.81094)" />
    <path
       transform="translate(139.14979,956.81094)"
       sodipodi:type="arc"
       style="fill:#80e5ff;fill-opacity:1;fill-rule:evenodd;stroke:#2c5aa0;stroke-width:0.76099998;stroke-linecap:butt;stroke-linejoin:round;stroke-miterlimit:4;stroke-opacity:1;stroke-dasharray:none;stroke-dashoffset:0"
       id="path3819-5-4"
       sodipodi:cx="30.935923"
       sodipodi:cy="77.902916"
       sodipodi:rx="2.1465743"
       sodipodi:ry="2.1465743"
       d="m 33.082497,77.902916 a 2.1465743,2.1465743 0 1 1 -4.293149,0 2.1465743,2.1465743 0 1 1 4.293149,0 z" />
    <path
       transform="translate(119.57808,956.81094)"
       sodipodi:type="arc"
       style="fill:#80e5ff;fill-opacity:1;fill-rule:evenodd;stroke:#2c5aa0;stroke-width:0.76099998;stroke-linecap:butt;stroke-linejoin:round;stroke-miterlimit:4;stroke-opacity:1;stroke-dasharray:none;stroke-dashoffset:0"
       id="path3819-6-4"
       sodipodi:cx="30.935923"
       sodipodi:cy="77.902916"
       sodipodi:rx="2.1465743"
       sodipodi:ry="2.1465743"
       d="m 33.082497,77.902916 a 2.1465743,2.1465743 0 1 1 -4.293149,0 2.1465743,2.1465743 0 1 1 4.293149,0 z" />
  </g>
</svg>
