<?xml version="1.0" encoding="UTF-8" standalone="no"?>
<!-- Created with Inkscape (http://www.inkscape.org/) -->

<svg
   xmlns:dc="http://purl.org/dc/elements/1.1/"
   xmlns:cc="http://creativecommons.org/ns#"
   xmlns:rdf="http://www.w3.org/1999/02/22-rdf-syntax-ns#"
   xmlns:svg="http://www.w3.org/2000/svg"
   xmlns="http://www.w3.org/2000/svg"
   xmlns:sodipodi="http://sodipodi.sourceforge.net/DTD/sodipodi-0.dtd"
   xmlns:inkscape="http://www.inkscape.org/namespaces/inkscape"
   width="300"
   height="100"
   id="svg3754"
   version="1.1"
   inkscape:version="0.47 r22583"
   sodipodi:docname="menu_button_hover.svg"
   inkscape:export-filename="/home/paul/src/OpenFala/data/images/cached/menu_button_hover.png"
   inkscape:export-xdpi="90"
   inkscape:export-ydpi="90">
  <defs
     id="defs3756">
    <linearGradient
       id="linearGradient5534">
      <stop
         style="stop-color:#ffffff;stop-opacity:0;"
         offset="0"
         id="stop5536" />
      <stop
         id="stop5544"
         offset="0.34"
         style="stop-color:#ffffff;stop-opacity:1;" />
      <stop
         id="stop5542"
         offset="0.66000003"
         style="stop-color:#ffffff;stop-opacity:1;" />
      <stop
         style="stop-color:#ffffff;stop-opacity:0;"
         offset="1"
         id="stop5538" />
    </linearGradient>
    <inkscape:path-effect
       effect="sketch"
       id="path-effect3767"
       is_visible="true"
       nbiter_approxstrokes="5"
       strokelength="100"
       strokelength_rdm="0.2;1"
       strokeoverlap="0.3"
       strokeoverlap_rdm="0.5;1"
       ends_tolerance="0.1;1"
       parallel_offset="10;1"
       tremble_size="5;1"
       tremble_frequency="1"
       nbtangents="5"
       tgt_places_rdmness="0;2147483646"
       tgtscale="10"
       tgtlength="100"
       tgtlength_rdm="0.3;1" />
    <inkscape:perspective
       sodipodi:type="inkscape:persp3d"
       inkscape:vp_x="0 : 526.18109 : 1"
       inkscape:vp_y="0 : 1000 : 0"
       inkscape:vp_z="744.09448 : 526.18109 : 1"
       inkscape:persp3d-origin="372.04724 : 350.78739 : 1"
       id="perspective3762" />
    <inkscape:perspective
       id="perspective5365"
       inkscape:persp3d-origin="0.5 : 0.33333333 : 1"
       inkscape:vp_z="1 : 0.5 : 1"
       inkscape:vp_y="0 : 1000 : 0"
       inkscape:vp_x="0 : 0.5 : 1"
       sodipodi:type="inkscape:persp3d" />
    <inkscape:path-effect
       effect="sketch"
       id="path-effect3767-0"
       is_visible="true"
       nbiter_approxstrokes="4"
       strokelength="100"
       strokelength_rdm="0.2;1"
       strokeoverlap="0.3"
       strokeoverlap_rdm="0.5;1"
       ends_tolerance="0.1;1"
       parallel_offset="5;1"
       tremble_size="5;1"
       tremble_frequency="1"
       nbtangents="5"
       tgt_places_rdmness="0;2147483646"
       tgtscale="10"
       tgtlength="100"
       tgtlength_rdm="0.3;1" />
    <filter
       inkscape:collect="always"
       id="filter5606"
       x="-0.029202797"
       width="1.0584056"
       y="-0.13470967"
       height="1.2694193">
      <feGaussianBlur
         inkscape:collect="always"
         stdDeviation="3.2809753"
         id="feGaussianBlur5608" />
    </filter>
  </defs>
  <sodipodi:namedview
     id="base"
     pagecolor="#ffffff"
     bordercolor="#666666"
     borderopacity="1.0"
     inkscape:pageopacity="0.0"
     inkscape:pageshadow="2"
     inkscape:zoom="1.0606602"
     inkscape:cx="35.193008"
     inkscape:cy="24.575535"
     inkscape:document-units="px"
     inkscape:current-layer="layer1"
     showgrid="false"
     inkscape:window-width="1280"
     inkscape:window-height="730"
     inkscape:window-x="0"
     inkscape:window-y="24"
     inkscape:window-maximized="1" />
  <metadata
     id="metadata3759">
    <rdf:RDF>
      <cc:Work
         rdf:about="">
        <dc:format>image/svg+xml</dc:format>
        <dc:type
           rdf:resource="http://purl.org/dc/dcmitype/StillImage" />
        <dc:title />
      </cc:Work>
    </rdf:RDF>
  </metadata>
  <g
     inkscape:label="Ebene 1"
     inkscape:groupmode="layer"
     id="layer1"
     transform="translate(0,-952.3622)">
    <path
       style="fill:none;stroke:#ffffff;stroke-width:1.76230406999999967;stroke-linejoin:miter;stroke-miterlimit:4;stroke-opacity:1;stroke-dashoffset:1.50000000000000000"
       d="m 31.324413,988.78726 c 30.26317,-0.9733 57.945625,-0.24913 85.928087,-0.0733 m -16.55304,-18.01249 c 26.51863,-0.45424 54.54886,0.0548 82.99997,0.64357 m -23.23316,11.70018 c 26.48253,-0.47584 55.1619,-1.1357 83.58455,-2.93091 m -5.63375,5.39235 c 17.8747,0.57408 35.10835,0.71743 52.32387,0.88212 0.10792,15.2918 0.20161,30.6003 0.71439,46.2401 m -14.0235,-42.50032 c -0.36928,11.98562 -0.1658,24.08472 0.46228,36.17172 -16.75729,-0.2888 -32.63758,-0.6025 -48.08074,-1.3136 m 22.28725,6.9673 c -29.00324,0.7902 -55.21066,-1.5861 -80.49074,-5.4249 m 6.97025,10.5027 c -28.51949,0.011 -54.51394,-0.3257 -79.681202,-0.9961 m 20.036192,-9.8243 c -26.176477,-0.2605 -54.168875,1.0542 -82.949657,3.4553 m 5.731158,-1.7753 c -8.299491,0.1598 -16.749117,0.1508 -25.302985,0 -0.05353,-18.8751 -0.600403,-38.40335 -1.168101,-58.26857 -0.001,-0.002 -0.002,-0.005 -0.0031,-0.007 4.333786,-0.31588 8.666413,-0.65128 13.00449,-1.00179 m 4.326808,1.65455 c 30.704487,1.44371 63.652788,1.35459 97.155167,3.60165 m -33.140728,-1.80509 c 30.820228,0.42435 59.126028,-0.0902 88.250958,-0.58498 m -23.55859,-5.39146 c 32.60223,0.81395 62.33415,-0.74955 93.04029,-2.57652 M 231.55522,980.858 c 15.6285,0.14141 30.99841,0.81466 46.46028,2.10925 0.39232,15.88718 0.87145,32.36085 1.75884,49.50305 m 4.25897,-28.8161 c -0.39793,10.9045 -0.6839,21.7567 -0.97337,32.7039 -17.52579,0.9027 -35.06101,2.061 -53.115,4.125 m 17.75031,-15.1703 c -28.50417,-0.7837 -58.26369,-0.2572 -88.87303,-0.1363 m 18.58561,8.1447 c -32.01275,0.8853 -61.83605,1.022 -90.868571,2.7625 m 20.509851,-5.3407 c -28.604387,0.6033 -58.171416,-1.5066 -87.377796,-4.9667 -0.004,-3.9827 -0.0025,-7.9854 0.0067,-12.0059 m 16.875664,12.4804 c -5.800567,0.1387 -11.589223,0.2839 -17.364101,0.4486 0.139948,-18.0303 0.419999,-35.86365 0.900681,-53.08691 8.63e-4,0.002 0.0017,0.005 0.0026,0.007 8.703253,0.61002 17.448463,1.34771 26.241415,2.25254 m -13.643006,-8.68609 c 29.535924,0.26366 60.302592,-0.62883 92.708846,-2.05348 m -39.14899,17.91255 c 32.20425,-0.69334 64.17658,-0.69172 98.70294,-1.81627 m -20.72927,-6.42581 c 32.5356,-0.37636 63.99677,-1.09468 95.56846,-3.22707 m -18.33797,7.172 c 14.90808,-0.75521 30.41233,-0.65152 46.23463,-0.17367 0.53779,18.08498 1.49073,36.65833 2.44407,54.99723 m -1.99864,-31.1764 c 0.0288,10.3702 0.0444,20.5557 0.0544,30.5012 -21.58517,-1.2493 -43.1939,-3.5041 -64.76065,-7.2379 m 11.56403,7.0373 c -33.8123,-0.3501 -65.57679,-0.106 -97.12813,-0.3101 m 30.39147,-10.1191 c -30.13267,1.3338 -62.27339,2.3165 -94.092373,6.4537 m 29.219823,4.8349 c -27.468955,-0.042 -54.656264,0.5103 -82.555208,1.5577 m 18.994677,4.5749 c -5.756518,-0.1757 -11.52853,-0.2979 -17.308097,-0.3825 0.194902,-18.8244 0.313545,-37.2701 0.61038,-55.84679 5.34e-4,-4e-5 0.0011,-8e-5 0.0016,-1.2e-4 6.215329,-0.007 12.450075,-0.0287 18.713355,-0.0828 m -24.032603,-0.13468 c 26.730534,0.53108 54.663226,-0.0841 81.651319,-0.76388 m -9.825451,2.5217 c 29.780246,0.59288 60.546376,-1.63383 92.276406,-5.28281 m -28.41236,-9.13177 c 32.42628,-1.07417 66.93191,1.09486 101.34694,3.3236 m -31.24363,11.75529 c 17.78963,0.80225 36.14761,0.85017 54.86814,0.84273 0.43921,11.32256 1.02165,22.62323 1.69621,34.07563 m 16.5245,-32.23126 c 0.14128,13.51686 0.14763,26.98956 0.0904,40.47396 -16.19837,0.1 -32.4888,0.2158 -48.74685,0.4464 m 15.9078,7.7613 c -30.83217,-0.024 -64.24967,1.189 -98.54699,3.5507 m 25.61206,-8.8242 c -32.51756,-0.3499 -63.9478,0.3311 -95.72889,1.1134 m 28.96965,-11.7382 c -29.435149,0.2527 -61.522225,1.6485 -92.850776,4.8659 m 10.250799,18.806 c -8.322795,0.1447 -16.536796,0.2191 -24.659057,0.2501 0.249218,-18.4856 0.964447,-37.1921 1.950422,-55.81349 0.0018,-1.2e-4 0.0035,-2.4e-4 0.0053,-3.5e-4 5.075416,-0.0171 10.16907,-0.0284 15.277542,-0.0285 m -9.851075,-21.67599 c 25.855849,-1.25479 53.621993,-0.36645 81.064339,0.21807 m -13.481517,17.36043 c 33.947597,-0.30936 63.165067,-0.7697 90.409947,-2.25889 m -8.53089,4.64197 c 33.58669,0.56973 65.49562,0.25418 99.04186,0.63059 m -40.17252,-25.24004 c 16.90251,0.17178 34.21,0.63454 51.91755,1.52626 0.49865,11.01968 1.15074,22.20388 1.9551,33.58537 m 1.91213,9.74571 c -0.50765,12.858 -0.32364,25.3849 0.33496,37.6789 -17.28195,-0.4801 -33.57426,-1.4458 -49.53057,-2.6016 m 17.74196,-8.5269 c -32.93489,-1.29 -62.71866,1.2535 -91.69372,4.0835 m 27.51026,5.37 c -28.23911,-0.054 -55.87819,-0.01 -83.64564,0 m 13.14882,-5.0404 c -29.289172,1.0323 -56.976231,0.2434 -85.568655,-0.126 m 7.00906,0.047 c -8.428918,-0.095 -16.670844,-0.1308 -24.788383,-0.126 -0.096,-18.5444 0.464678,-36.8725 0.92266,-55.19642 8.23e-4,4.2e-4 0.0016,8.3e-4 0.0025,0.001 0.509261,0.006 1.018448,0.0124 1.527545,0.0186 m -3.297414,14.49599 c -0.01499,-3.72164 -0.0084,-7.48611 0.0192,-11.28848 2.39e-4,3.8e-4 4.79e-4,7.6e-4 7.22e-4,0.001 27.123301,0.30271 55.273858,-1.25037 84.233485,-2.96892 m -98.6384999,-7.08754 160.8593799,0 m -24.23901,0 143.51562,0 m 74.9949,55.66609 -149.14062,0 m 41.69994,0 -190.156246,0 m 51.895256,0 -169.531247,0"
       id="rect3764"
       inkscape:path-effect="#path-effect3767"
       inkscape:original-d="m 20.230122,976.48291 264.155138,0 0,55.66609 -264.155138,0 0,-55.66609 z" />
    <rect
       style="fill:#ffffff;stroke:none;stroke-width:1;stroke-linejoin:miter;stroke-miterlimit:4;stroke-opacity:1;stroke-dasharray:none;stroke-dashoffset:1.50000000000000000;fill-opacity:1;opacity:0.48999999999999999;filter:url(#filter5606)"
       id="rect5532"
       width="269.64337"
       height="58.454159"
       x="18.85618"
       y="22.689659"
       transform="translate(0,952.3622)" />
  </g>
</svg>
